<?xml version="1.0" encoding="utf-8"?>
<!-- Generator: Adobe Illustrator 24.1.2, SVG Export Plug-In . SVG Version: 6.00 Build 0)  -->
<svg version="1.0" id="Capa_1" xmlns="http://www.w3.org/2000/svg" xmlns:xlink="http://www.w3.org/1999/xlink" x="0px" y="0px"
	 viewBox="0 0 300 75" enable-background="new 0 0 300 75" xml:space="preserve">
<path fill="#FFFFFF" d="M225.15,35.66c-3.22-3.07-6.89-4.88-11.2-5.48c-3.97-0.55-7.74-0.2-11.16,2.03
	c-3.69,2.4-5.67,5.72-5.3,10.23c0.22,2.7,1.55,4.7,3.84,6.11c2.16,1.34,4.58,1.74,7.04,1.93c2.27,0.17,4.56,0.16,6.84,0.31
	c0.9,0.06,1.8,0.28,2.67,0.52c4.16,1.13,4.3,6.34,1.84,8.46c-1.5,1.29-3.21,2.02-5.12,2.42c-5.25,1.1-9.86,0.01-13.69-3.86
	c-0.41-0.42-0.81-0.85-1.29-1.36c-1.27,1.19-2.5,2.33-3.71,3.47c0.11,0.18,0.17,0.3,0.26,0.4c3.83,4.55,8.73,6.93,14.67,7.04
	c3.56,0.07,6.97-0.63,10.11-2.44c5.37-3.09,6.76-7.93,5.27-13.44c-0.41-1.54-1.33-2.83-2.62-3.75c-1.8-1.3-3.83-2.15-6.04-2.37
	c-2.67-0.27-5.37-0.34-8.04-0.57c-1.22-0.11-2.46-0.27-3.61-0.65c-2.38-0.78-3.27-3.01-2.21-5.29c0.77-1.65,2.08-2.79,3.78-3.37
	c3.65-1.25,7.2-0.75,10.56,1.01c1.32,0.69,2.53,1.59,3.91,2.47C222.98,38.23,224.06,36.96,225.15,35.66z"/>
<path fill="#FFFFFF" d="M234.55,31.1c0,12.05,0,23.95,0,35.92c9.12,0,18.19,0,27.27,0c0-1.78,0-3.48,0-5.3c-7.4,0-14.68,0-22.08,0
	c0-2.94-0.02-5.76,0.03-8.58c0-0.26,0.36-0.66,0.62-0.74c1.39-0.41,2.78-0.95,4.21-1.05c2.77-0.19,5.56-0.11,8.35-0.14
	c0.48-0.01,0.97-0.05,1.45-0.07c0-1.83,0-3.5,0-5.33c-4.93,0.34-9.88-0.76-14.56,1.32c0-3.63,0-7.17,0-10.85c6.7,0,13.29,0,19.94,0
	c0-1.81,0-3.47,0-5.18C251.33,31.1,242.99,31.1,234.55,31.1z"/>
<path fill="#FFFFFF" d="M111.68,56.91c-0.25,0.31-0.39,0.49-0.54,0.67c-4.57,5.55-13.04,6.65-19.19,2.48
	c-8.12-5.5-7.46-16.73-0.73-21.81c5.29-4,13.36-4.02,18.73,0.69c0.23,0.21,0.48,0.4,0.8,0.65c1.12-1.33,2.2-2.6,3.25-3.84
	c-0.09-0.18-0.12-0.28-0.18-0.34c-0.12-0.13-0.26-0.26-0.4-0.38c-4.39-3.82-9.49-5.59-15.27-4.97c-5.55,0.6-10.14,3.14-13.6,7.57
	c-5.95,7.64-4.46,18.51,2.14,24.92c5.73,5.56,14.83,6.92,22.12,3.39c2.32-1.12,4.37-2.58,6.09-4.59
	C113.86,59.9,112.84,58.5,111.68,56.91z"/>
<path fill="#FFFFFF" d="M284.56,36.24c4.34,0,8.47,0,12.56,0c0-1.82,0-3.48,0-5.13c-10.22,0-20.34,0-30.5,0c0,1.74,0,3.4,0,5.24
	c4.29,0,8.5,0,12.85,0c0,10.33,0,20.48,0,30.62c1.76,0,3.37,0,5.09,0C284.56,56.73,284.56,46.61,284.56,36.24z"/>
<path fill="#FFFFFF" d="M122.75,66.99c8.46,0,16.78,0,25.09,0c0-1.78,0-3.45,0-5.28c-6.68,0-13.26,0-19.94,0
	c0-10.29,0-20.41,0-30.59c-1.76,0-3.42,0-5.15,0C122.75,43.09,122.75,54.99,122.75,66.99z"/>
<path fill="#FFFFFF" d="M138.34,10.32c0.56,0.61,0.93,0.99,1.27,1.4c2.48,2.98,5.02,5.91,7.4,8.97c1.01,1.3,2.11,1.5,3.55,1.17
	c0-5.73,0-11.41,0-17.06c-0.85,0-1.61,0-2.51,0c0,4.26,0,8.42,0,12.87c-0.57-0.62-0.94-1.01-1.29-1.42
	c-3.02-3.59-6.03-7.2-9.07-10.78c-0.27-0.32-0.67-0.68-1.05-0.73c-0.84-0.11-1.69-0.03-2.75-0.03c0.39,0.53,0.6,0.95,0.91,1.24
	c0.84,0.78,1.04,1.71,1.03,2.83c-0.06,3.88-0.03,7.75-0.02,11.63c0,0.49,0.04,0.97,0.06,1.46c0.86,0,1.6,0,2.47,0
	C138.34,18.04,138.34,14.33,138.34,10.32z"/>
<path fill="#FFFFFF" d="M259.35,21.84c0-5.66,0-11.33,0-17.05c-0.82,0-1.56,0-2.49,0c0,4.26,0,8.45,0,12.9
	c-0.49-0.54-0.78-0.82-1.04-1.13c-3.08-3.67-6.15-7.34-9.24-10.99c-0.3-0.35-0.73-0.75-1.16-0.81c-0.83-0.13-1.69-0.04-2.77-0.04
	c0.39,0.51,0.59,0.86,0.87,1.14c0.88,0.85,1.13,1.84,1.11,3.07c-0.08,3.83-0.03,7.66-0.03,11.5c0,0.49,0,0.97,0,1.47
	c0.91,0,1.65,0,2.52,0c0-3.86,0-7.61,0-11.62c0.32,0.36,0.47,0.51,0.61,0.68c2.69,3.22,5.43,6.39,8.03,9.68
	C256.75,21.87,257.81,22.28,259.35,21.84z"/>
<path fill="#FFFFFF" d="M229.57,12.25c0-1.66,0-3.31,0-5.07c3.2,0,6.28,0,9.43,0c0.02-0.47,0.06-0.83,0.06-1.18
	c-0.01-0.4-0.05-0.79-0.07-1.17c-2.08-0.28-11.12-0.18-12.02,0.12c0,5.64,0,11.27,0,16.92c4.39,0,8.68,0,12.96,0
	c0-0.87,0-1.62,0-2.48c-3.53-0.04-6.96,0.02-10.47-0.03c0-1.33,0.03-2.42-0.01-3.51c-0.03-0.74,0.32-1.12,0.99-1.21
	c1.04-0.13,2.08-0.24,3.12-0.29c0.94-0.05,1.87-0.01,2.77-0.01c0-0.95,0-1.7,0-2.47c-1.61,0-3.11-0.04-4.61,0.02
	C231.01,11.91,230.31,12.12,229.57,12.25z"/>
<path fill="#FFFFFF" d="M296.4,6.99c-1.6-1.59-3.43-2.52-5.59-2.73c-2.52-0.25-4.81,0.26-6.53,2.32c-1.69,2.03-1.79,6.11,2.13,7
	c1.19,0.27,2.42,0.35,3.64,0.49c0.81,0.1,1.63,0.1,2.44,0.24c1.05,0.18,1.89,0.65,2.04,1.86c0.15,1.22-0.3,2.17-1.36,2.75
	c-1.35,0.73-2.8,1.05-4.35,0.81c-1.84-0.29-3.29-1.25-4.6-2.65c-0.6,0.6-1.17,1.17-1.74,1.74c1.72,2.23,3.99,3.3,6.64,3.46
	c2.53,0.15,4.89-0.4,6.76-2.3c2.46-2.5,1.47-6.8-1.84-7.86c-0.94-0.3-1.95-0.39-2.94-0.5c-1.17-0.13-2.38-0.07-3.53-0.3
	c-1.62-0.32-2.1-1.84-1.04-3.13c0.76-0.93,1.78-1.47,2.98-1.43c1.56,0.05,3.07,0.38,4.37,1.35c0.32,0.24,0.67,0.42,1.04,0.64
	C295.43,8.13,295.9,7.58,296.4,6.99z"/>
<path fill="#FFFFFF" d="M120.61,19.39c0-1.29,0.04-2.38-0.01-3.46c-0.04-0.82,0.36-1.2,1.07-1.29c1.08-0.14,2.17-0.23,3.26-0.29
	c0.89-0.05,1.78-0.01,2.62-0.01c0-0.96,0-1.71,0-2.62c-2.36,0.13-4.61,0.24-6.86,0.36c0-1.49,0-3.12,0-4.9c3.2,0,6.32,0,9.41,0
	c0-0.91,0-1.66,0-2.38c-4.05,0-8,0-11.94,0c0,5.75,0,11.39,0,17.08c4.38,0,8.69,0,12.99,0c0-0.86,0-1.61,0-2.49
	C127.68,19.39,124.27,19.39,120.61,19.39z"/>
<path fill="#FFFFFF" d="M195.81,7.18c0,2.61,0,5.02,0,7.43c0,2.44-0.02,4.88,0.02,7.26c0.94,0,1.65,0,2.49,0c0-4.93,0-9.74,0-14.7
	c2.08,0,4.02,0,5.91,0c0-0.9,0-1.65,0-2.35c-4.92,0-9.73,0-14.55,0c0,0.83,0,1.54,0,2.36C191.69,7.18,193.64,7.18,195.81,7.18z"/>
<path fill="#FFFFFF" d="M87.03,7.25c0,4.96,0,9.81,0,14.62c0.9,0,1.6,0,2.44,0c0-4.93,0-9.74,0-14.69c2.08,0,4.02,0,5.98,0
	c0-0.88,0-1.63,0-2.38c-4.91,0-9.71,0-14.52,0c0,0.85,0,1.59,0,2.46C82.95,7.25,84.9,7.25,87.03,7.25z"/>
<path fill="#FFFFFF" d="M179.44,21.88c0.94,0,1.68,0,2.5,0c0-2.2,0.02-4.3-0.01-6.39c-0.01-0.68,0.19-1.2,0.63-1.72
	c0.94-1.11,1.85-2.25,2.69-3.45c1.19-1.7,2.27-3.48,3-5.56c-0.98,0-1.83,0-2.76,0c-1.21,2.7-2.61,5.28-4.79,7.41
	c-1.62-1.65-2.84-3.51-3.86-5.5c-1.11-2.17-1.09-2.18-3.64-1.85c0.12,0.3,0.22,0.6,0.35,0.88c1.24,2.71,2.83,5.2,4.82,7.42
	c0.82,0.91,1.17,1.84,1.11,3.06C179.37,18.04,179.44,19.91,179.44,21.88z"/>
<path fill="#FFFFFF" d="M8.28,23.14c5.44,0,10.73,0,16.04,0c0-0.64,0-1.16,0-1.75c-5.37,0-10.68,0-16.04,0
	C8.28,22,8.28,22.54,8.28,23.14z"/>
<path fill="#FFFFFF" d="M49.08,23.17c5.42,0,10.72,0,16.07,0c0-0.62,0-1.15,0-1.74c-5.38,0-10.71,0-16.07,0
	C49.08,22.04,49.08,22.53,49.08,23.17z"/>
<path fill="#FFFFFF" d="M28.1,28.85c0-5.46,0-10.76,0-16.02c-0.64,0-1.17,0-1.73,0c0,5.39,0,10.69,0,16.02
	C27,28.85,27.53,28.85,28.1,28.85z"/>
<path fill="#FFFFFF" d="M45.32,12.81c0,5.45,0,10.75,0,16.02c0.64,0,1.17,0,1.73,0c0-5.37,0-10.67,0-16.02
	C46.43,12.81,45.91,12.81,45.32,12.81z"/>
<path fill="#FFFFFF" d="M24.33,40.43c-5.41,0-10.72,0-15.99,0c0,0.67,0,1.23,0,1.77c5.38,0,10.66,0,15.99,0
	C24.33,41.61,24.33,41.07,24.33,40.43z"/>
<path fill="#FFFFFF" d="M49.09,42.17c5.42,0,10.73,0,15.99,0c0-0.66,0-1.22,0-1.76c-5.39,0-10.66,0-15.99,0
	C49.09,41.03,49.09,41.56,49.09,42.17z"/>
<path fill="#FFFFFF" d="M18.58,60.21c0-5.41,0-10.69,0-15.98c-0.64,0-1.2,0-1.77,0c0,5.37,0,10.64,0,15.98
	C17.42,60.21,17.95,60.21,18.58,60.21z"/>
<path fill="#FFFFFF" d="M35.8,44.21c0,5.34,0,10.64,0,15.96c0.63,0,1.18,0,1.75,0c0-5.37,0-10.63,0-15.96
	c-0.29-0.03-0.51-0.07-0.73-0.07C36.51,44.14,36.2,44.18,35.8,44.21z"/>
<path fill="#FFFFFF" d="M56.56,60.23c0-5.34,0-10.67,0-16.03c-0.36-0.03-0.63-0.06-0.9-0.06c-0.26,0-0.52,0.04-0.8,0.07
	c0,5.38,0,10.68,0,16.03C55.45,60.23,55.95,60.23,56.56,60.23z"/>
<path fill="#FFFFFF" d="M30.14,23.16c4.4,0,8.74,0,13.12,0c0-0.63,0-1.16,0-1.74c-4.4,0-8.74,0-13.12,0
	C30.14,22.04,30.14,22.57,30.14,23.16z"/>
<path fill="#FFFFFF" d="M56.59,38.38c0-4.45,0-8.83,0-13.22c-0.62,0-1.15,0-1.73,0c0,4.45,0,8.83,0,13.22
	C55.5,38.38,56.03,38.38,56.59,38.38z"/>
<path fill="#FFFFFF" d="M33.81,30.89c-4.48,0-8.84,0-13.19,0c0,0.63,0,1.16,0,1.75c4.42,0,8.77,0,13.19,0
	C33.81,32.03,33.81,31.5,33.81,30.89z"/>
<path fill="#FFFFFF" d="M39.54,32.61c4.5,0,8.88,0,13.26,0c0-0.64,0-1.17,0-1.71c-4.45,0-8.84,0-13.26,0
	C39.54,31.49,39.54,31.98,39.54,32.61z"/>
<path fill="#FFFFFF" d="M18.58,38.39c0-4.47,0-8.82,0-13.2c-0.65,0-1.21,0-1.77,0c0,4.45,0,8.8,0,13.2
	C17.41,38.39,17.94,38.39,18.58,38.39z"/>
<path fill="#FFFFFF" d="M26.37,34.66c0,4.49,0,8.83,0,13.17c0.66,0,1.22,0,1.76,0c0-4.45,0-8.8,0-13.17
	C27.52,34.66,26.99,34.66,26.37,34.66z"/>
<path fill="#FFFFFF" d="M45.29,47.84c0.64,0,1.2,0,1.75,0c0-4.46,0-8.81,0-13.17c-0.63,0-1.16,0-1.75,0
	C45.29,39.09,45.29,43.44,45.29,47.84z"/>
<path fill="#FFFFFF" d="M37.54,38.4c0-4.48,0-8.83,0-13.2c-0.66,0-1.21,0-1.72,0c0,4.46,0,8.81,0,13.2
	C36.43,38.4,36.92,38.4,37.54,38.4z"/>
<path fill="#FFFFFF" d="M33.79,51.61c0-0.63,0-1.19,0-1.75c-4.44,0-8.79,0-13.17,0c0,0.62,0,1.15,0,1.75
	C25.03,51.61,29.38,51.61,33.79,51.61z"/>
<path fill="#FFFFFF" d="M52.82,49.86c-4.51,0-8.89,0-13.24,0c0,0.62,0,1.15,0,1.72c4.45,0,8.83,0,13.24,0
	C52.82,50.97,52.82,50.48,52.82,49.86z"/>
<path fill="#FFFFFF" d="M30.14,42.2c4.4,0,8.74,0,13.1,0c0-0.63,0-1.19,0-1.76c-4.42,0-8.75,0-13.1,0
	C30.14,41.07,30.14,41.6,30.14,42.2z"/>
<path fill="#FFFFFF" d="M16.85,12.79c0,2.19,0,4.37,0,6.58c0.6,0,1.16,0,1.7,0c0-2.25,0-4.4,0-6.58
	C17.95,12.79,17.46,12.79,16.85,12.79z"/>
<path fill="#FFFFFF" d="M54.83,12.82c0,2.22,0,4.36,0,6.56c0.63,0,1.19,0,1.75,0c0-2.25,0-4.4,0-6.56
	C55.96,12.82,55.44,12.82,54.83,12.82z"/>
<path fill="#FFFFFF" d="M37.55,19.41c0-2.28,0-4.4,0-6.59c-0.61,0-1.14,0-1.75,0c0,2.2,0,4.37,0,6.59
	C36.39,19.41,36.92,19.41,37.55,19.41z"/>
<path fill="#FFFFFF" d="M28.13,60.21c0-2.22,0-4.37,0-6.55c-0.63,0-1.19,0-1.74,0c0,2.24,0,4.39,0,6.55
	C27.01,60.21,27.54,60.21,28.13,60.21z"/>
<path fill="#FFFFFF" d="M47.02,60.21c0-2.31,0-4.46,0-6.57c-0.64,0-1.17,0-1.71,0c0,2.23,0,4.38,0,6.57
	C45.92,60.21,46.45,60.21,47.02,60.21z"/>
<path fill="#FFFFFF" d="M58.58,32.6c2.27,0,4.42,0,6.55,0c0-0.64,0-1.17,0-1.71c-2.22,0-4.36,0-6.55,0
	C58.58,31.5,58.58,32,58.58,32.6z"/>
<path fill="#FFFFFF" d="M14.78,30.89c-2.21,0-4.35,0-6.49,0c0,0.63,0,1.16,0,1.72c2.21,0,4.35,0,6.49,0
	C14.78,31.99,14.78,31.46,14.78,30.89z"/>
<path fill="#FFFFFF" d="M65.16,49.86c-2.25,0-4.37,0-6.55,0c0,0.61,0,1.14,0,1.72c2.22,0,4.37,0,6.55,0
	C65.16,50.97,65.16,50.48,65.16,49.86z"/>
<path fill="#FFFFFF" d="M14.78,51.64c0-0.67,0-1.19,0-1.79c-2.19,0-4.3,0-6.46,0c0,0.63,0,1.19,0,1.79
	C10.49,51.64,12.57,51.64,14.78,51.64z"/>
<g>
	<defs>
		<path id="SVGID_1_" d="M171.33,30.01c8.77-0.11,17.63,6.37,19,16.32c1.09,7.95-2.47,15.13-9.34,18.87
			c-6.9,3.76-13.9,3.75-20.62-0.5c-7.66-4.85-10.8-15.18-7.07-23.37c2.85-6.26,7.91-9.82,14.62-11.11c0.49-0.09,0.99-0.18,1.49-0.21
			C170.05,29.98,170.7,30.01,171.33,30.01z M185.29,48.91c0.07-4.56-2.23-8.82-6.09-11.29c-3.58-2.28-7.49-2.78-11.55-1.88
			c-9.15,2.01-12.29,11.01-9.96,17.53c1.87,5.24,5.77,8.13,11.16,9.09C177.36,63.89,185.16,57.5,185.29,48.91z"/>
	</defs>
	<use xlink:href="#SVGID_1_"  overflow="visible"/>
	<clipPath id="SVGID_2_">
		<use xlink:href="#SVGID_1_"  overflow="visible"/>
	</clipPath>
	<path clip-path="url(#SVGID_2_)" d="M171.33,30.01c-0.64,0-1.28-0.03-1.92,0.01c-0.5,0.03-1,0.12-1.49,0.21
		c-6.71,1.28-11.77,4.85-14.62,11.11c-3.73,8.19-0.59,18.52,7.07,23.37c6.72,4.25,13.71,4.26,20.62,0.5
		c6.87-3.74,10.43-10.92,9.34-18.87C188.97,36.38,180.11,29.9,171.33,30.01z"/>
</g>
<path d="M225.15,35.66c-1.09,1.3-2.17,2.57-3.22,3.82c-1.38-0.88-2.59-1.78-3.91-2.47c-3.37-1.76-6.91-2.26-10.56-1.01
	c-1.7,0.58-3.01,1.72-3.78,3.37c-1.06,2.27-0.17,4.5,2.21,5.29c1.15,0.38,2.4,0.54,3.61,0.65c2.68,0.24,5.37,0.3,8.04,0.57
	c2.21,0.22,4.25,1.08,6.04,2.37c1.29,0.93,2.21,2.22,2.62,3.75c1.49,5.51,0.1,10.35-5.27,13.44c-3.14,1.8-6.55,2.51-10.11,2.44
	c-5.94-0.11-10.84-2.49-14.67-7.04c-0.09-0.1-0.15-0.23-0.26-0.4c1.22-1.14,2.44-2.28,3.71-3.47c0.48,0.51,0.88,0.94,1.29,1.36
	c3.84,3.87,8.45,4.95,13.69,3.86c1.91-0.4,3.62-1.13,5.12-2.42c2.46-2.12,2.33-7.33-1.84-8.46c-0.87-0.24-1.77-0.46-2.67-0.52
	c-2.28-0.15-4.56-0.14-6.84-0.31c-2.46-0.18-4.88-0.59-7.04-1.93c-2.29-1.41-3.62-3.42-3.84-6.11c-0.37-4.51,1.61-7.84,5.3-10.23
	c3.43-2.23,7.19-2.58,11.16-2.03C218.26,30.78,221.93,32.59,225.15,35.66z"/>
<path d="M234.55,31.1c8.44,0,16.79,0,25.22,0c0,1.7,0,3.37,0,5.18c-6.64,0-13.24,0-19.94,0c0,3.68,0,7.22,0,10.85
	c4.68-2.09,9.63-0.98,14.56-1.32c0,1.84,0,3.51,0,5.33c-0.48,0.03-0.96,0.07-1.45,0.07c-2.78,0.04-5.57-0.04-8.35,0.14
	c-1.42,0.1-2.82,0.64-4.21,1.05c-0.27,0.08-0.62,0.48-0.62,0.74c-0.04,2.82-0.03,5.64-0.03,8.58c7.4,0,14.69,0,22.08,0
	c0,1.82,0,3.52,0,5.3c-9.09,0-18.15,0-27.27,0C234.55,55.04,234.55,43.14,234.55,31.1z"/>
<path d="M111.68,56.91c1.16,1.6,2.17,2.99,3.24,4.46c-1.73,2-3.77,3.47-6.09,4.59c-7.29,3.53-16.39,2.17-22.12-3.39
	c-6.6-6.41-8.09-17.28-2.14-24.92c3.45-4.43,8.05-6.98,13.6-7.57c5.78-0.62,10.88,1.16,15.27,4.97c0.14,0.12,0.27,0.24,0.4,0.38
	c0.06,0.06,0.08,0.15,0.18,0.34c-1.05,1.24-2.13,2.51-3.25,3.84c-0.32-0.26-0.56-0.45-0.8-0.65c-5.38-4.71-13.45-4.69-18.73-0.69
	c-6.73,5.08-7.39,16.3,0.73,21.81c6.15,4.16,14.62,3.06,19.19-2.48C111.29,57.4,111.43,57.22,111.68,56.91z"/>
<path d="M284.56,36.24c0,10.37,0,20.49,0,30.73c-1.72,0-3.34,0-5.09,0c0-10.14,0-20.29,0-30.62c-4.35,0-8.56,0-12.85,0
	c0-1.84,0-3.5,0-5.24c10.16,0,20.27,0,30.5,0c0,1.64,0,3.3,0,5.13C293.02,36.24,288.9,36.24,284.56,36.24z"/>
<path d="M122.75,66.99c0-12,0-23.9,0-35.87c1.73,0,3.39,0,5.15,0c0,10.18,0,20.3,0,30.59c6.68,0,13.27,0,19.94,0
	c0,1.83,0,3.5,0,5.28C139.53,66.99,131.21,66.99,122.75,66.99z"/>
<g>
	<defs>
		<path id="SVGID_3_" d="M101.21,21.91c-0.82,0-1.54,0-2.25,0c-0.33-0.94-0.45-14.57-0.14-17.09c0.18-0.04,0.39-0.12,0.6-0.11
			c2.96,0,5.93-0.08,8.89,0.05c4.65,0.2,5.61,4.45,4.45,7.21c-0.3,0.71-0.96,1.31-1.57,1.82c-0.51,0.43-1.18,0.66-1.88,1.03
			c0.52,0.99,1,2.01,1.57,2.98c0.63,1.08,1.5,1.84,3.01,1.54c0.03,0.45,0.08,0.84,0.09,1.23c0.01,0.4,0,0.81,0,1.2
			c-2.3,0.41-4.06-0.34-5.15-2.22c-0.43-0.74-0.78-1.54-1.16-2.31c-0.38-0.77-0.76-1.54-1.15-2.33c-1.23,0-2.42-0.06-3.6,0.02
			c-1.39,0.09-1.62,0.4-1.62,1.78c-0.01,1.28,0.01,2.55,0,3.83C101.28,20.97,101.24,21.41,101.21,21.91z M101.33,12.57
			c1.7-0.11,3.29-0.22,4.87-0.31c0.86-0.05,1.74-0.01,2.59-0.14c1.15-0.17,1.8-0.99,1.89-2.18c0.09-1.29-0.34-2.05-1.5-2.44
			c-0.51-0.17-1.07-0.26-1.61-0.27c-1.82-0.03-3.65-0.02-5.47-0.01c-0.25,0-0.5,0.09-0.76,0.15
			C101.33,9.17,101.33,10.9,101.33,12.57z"/>
	</defs>
	<use xlink:href="#SVGID_3_"  overflow="visible"/>
	<clipPath id="SVGID_4_">
		<use xlink:href="#SVGID_3_"  overflow="visible"/>
	</clipPath>
	<path clip-path="url(#SVGID_4_)" d="M101.21,21.91c0.03-0.5,0.07-0.95,0.07-1.39c0.01-1.28,0-2.55,0-3.83
		c0.01-1.38,0.23-1.68,1.62-1.78c1.18-0.08,2.36-0.02,3.6-0.02c0.39,0.79,0.77,1.56,1.15,2.33c0.38,0.77,0.73,1.57,1.16,2.31
		c1.09,1.88,2.85,2.63,5.15,2.22c0-0.39,0.01-0.79,0-1.2c-0.01-0.39-0.06-0.78-0.09-1.23c-1.51,0.3-2.38-0.45-3.01-1.54
		c-0.57-0.97-1.05-1.99-1.57-2.98c0.7-0.37,1.37-0.6,1.88-1.03c0.61-0.51,1.28-1.11,1.57-1.82c1.17-2.76,0.2-7.01-4.45-7.21
		c-2.96-0.13-5.92-0.04-8.89-0.05c-0.21,0-0.42,0.08-0.6,0.11c-0.31,2.52-0.18,16.15,0.14,17.09
		C99.67,21.91,100.38,21.91,101.21,21.91z"/>
</g>
<g>
	<defs>
		<path id="SVGID_5_" d="M215.28,14.85c-1.75,0.14-3.51-0.33-5.2,0.62c0,2.11,0,4.2,0,6.4c-0.84,0-1.58,0-2.44,0
			c0-5.67,0-11.33,0-17.17c0.65,0,1.27,0,1.89,0c2.42,0.01,4.83,0.01,7.25,0.02c2.73,0.01,4.65,1.58,5.07,3.87
			c0.53,2.91-0.47,4.72-3.18,5.91c-0.17,0.07-0.33,0.14-0.62,0.26c1.2,1.93,1.42,4.67,4.61,4.72c0,0.77,0,1.53,0,2.29
			c-2.15,0.42-3.94-0.31-4.99-2.13c-0.66-1.14-1.2-2.35-1.79-3.53C215.7,15.7,215.5,15.3,215.28,14.85z M210.14,12.63
			c1.45-0.13,2.75-0.27,4.06-0.36c1.04-0.07,2.09-0.01,3.13-0.12c1.41-0.14,2.09-0.95,2.12-2.35c0.04-1.6-0.72-2.44-2.53-2.54
			c-1.72-0.09-3.45-0.04-5.18-0.04c-0.53,0-1.05,0-1.6,0C210.14,9.17,210.14,10.93,210.14,12.63z"/>
	</defs>
	<use xlink:href="#SVGID_5_"  overflow="visible"/>
	<clipPath id="SVGID_6_">
		<use xlink:href="#SVGID_5_"  overflow="visible"/>
	</clipPath>
	<path clip-path="url(#SVGID_6_)" d="M215.28,14.85c0.22,0.45,0.41,0.85,0.61,1.26c0.59,1.18,1.13,2.39,1.79,3.53
		c1.05,1.82,2.84,2.54,4.99,2.13c0-0.76,0-1.51,0-2.29c-3.19-0.05-3.41-2.79-4.61-4.72c0.29-0.12,0.46-0.18,0.62-0.26
		c2.71-1.19,3.71-3,3.18-5.91c-0.42-2.29-2.34-3.86-5.07-3.87c-2.42-0.01-4.83-0.01-7.25-0.02c-0.62,0-1.25,0-1.89,0
		c0,5.84,0,11.51,0,17.17c0.86,0,1.6,0,2.44,0c0-2.2,0-4.29,0-6.4C211.78,14.52,213.53,14.98,215.28,14.85z"/>
</g>
<path d="M138.34,10.32c0,4.01,0,7.71,0,11.54c-0.86,0-1.6,0-2.47,0c-0.02-0.49-0.06-0.97-0.06-1.46c0-3.88-0.04-7.75,0.02-11.63
	c0.02-1.12-0.19-2.05-1.03-2.83c-0.32-0.3-0.53-0.71-0.91-1.24c1.06,0,1.92-0.08,2.75,0.03c0.38,0.05,0.78,0.41,1.05,0.73
	c3.04,3.58,6.04,7.19,9.07,10.78c0.34,0.41,0.72,0.79,1.29,1.42c0-4.45,0-8.61,0-12.87c0.9,0,1.65,0,2.51,0c0,5.65,0,11.33,0,17.06
	c-1.44,0.33-2.54,0.13-3.55-1.17c-2.38-3.06-4.92-5.99-7.4-8.97C139.27,11.32,138.9,10.94,138.34,10.32z"/>
<path d="M259.35,21.84c-1.54,0.45-2.59,0.03-3.58-1.22c-2.6-3.29-5.35-6.46-8.03-9.68c-0.14-0.16-0.29-0.32-0.61-0.68
	c0,4,0,7.76,0,11.62c-0.86,0-1.61,0-2.52,0c0-0.5,0-0.98,0-1.47c0-3.83-0.05-7.66,0.03-11.5c0.03-1.23-0.23-2.22-1.11-3.07
	c-0.28-0.27-0.49-0.63-0.87-1.14c1.08,0,1.94-0.09,2.77,0.04c0.42,0.06,0.86,0.46,1.16,0.81c3.1,3.65,6.16,7.33,9.24,10.99
	c0.26,0.31,0.55,0.6,1.04,1.13c0-4.45,0-8.64,0-12.9c0.93,0,1.67,0,2.49,0C259.35,10.5,259.35,16.18,259.35,21.84z"/>
<g>
	<defs>
		<path id="SVGID_7_" d="M265.44,21.9c0-4.93,0-9.74,0-14.61c-0.5-0.05-0.9-0.09-1.37-0.13c-0.32-0.74-0.63-1.48-1.01-2.35
			c0.47-0.04,0.81-0.1,1.15-0.1c2.46-0.01,4.93,0.07,7.39-0.02c3.65-0.14,6.96,2.59,7.96,6.1c1.09,3.82-0.69,8.43-4.11,10.26
			c-0.86,0.46-1.88,0.78-2.85,0.82C270.29,21.98,267.97,21.9,265.44,21.9z M268,7.24c0,4.1,0,8.04,0,12.06
			c1.56,0,3.06,0.13,4.53-0.05c0.89-0.11,1.86-0.51,2.57-1.06c2.36-1.85,2.89-5.41,1.37-8.17c-0.93-1.68-2.34-2.65-4.26-2.76
			C270.85,7.18,269.49,7.24,268,7.24z"/>
	</defs>
	<use xlink:href="#SVGID_7_"  overflow="visible"/>
	<clipPath id="SVGID_8_">
		<use xlink:href="#SVGID_7_"  overflow="visible"/>
	</clipPath>
	<path clip-path="url(#SVGID_8_)" d="M265.44,21.9c2.53,0,4.85,0.08,7.16-0.04c0.96-0.05,1.99-0.37,2.85-0.82
		c3.42-1.83,5.2-6.43,4.11-10.26c-1-3.51-4.31-6.24-7.96-6.1c-2.46,0.09-4.92,0.01-7.39,0.02c-0.34,0-0.68,0.06-1.15,0.1
		c0.37,0.87,0.69,1.61,1.01,2.35c0.47,0.04,0.86,0.08,1.37,0.13C265.44,12.15,265.44,16.97,265.44,21.9z"/>
</g>
<g>
	<defs>
		<path id="SVGID_9_" d="M156.69,21.96c0-4.95,0-9.77,0-14.57c-1.61-0.3-1.71-0.41-2.32-2.61c3.33,0,6.69-0.3,9.97,0.08
			c3.29,0.39,5.4,2.66,6.37,5.85c1.19,3.89-0.61,8.52-4.12,10.35c-0.98,0.51-2.16,0.79-3.26,0.85
			C161.2,22.05,159.05,21.96,156.69,21.96z M159.23,19.36c1.33,0,2.59,0.03,3.85-0.01c0.58-0.02,1.19-0.09,1.73-0.29
			c2.85-1.06,4.35-4.3,3.49-7.4c-0.6-2.16-1.78-3.88-4.1-4.23c-1.62-0.25-3.31-0.05-4.97-0.05
			C159.23,11.35,159.23,15.29,159.23,19.36z"/>
	</defs>
	<use xlink:href="#SVGID_9_"  overflow="visible"/>
	<clipPath id="SVGID_10_">
		<use xlink:href="#SVGID_9_"  overflow="visible"/>
	</clipPath>
	<path clip-path="url(#SVGID_10_)" d="M156.69,21.96c2.36,0,4.51,0.09,6.64-0.04c1.11-0.07,2.29-0.34,3.26-0.85
		c3.51-1.84,5.3-6.46,4.12-10.35c-0.97-3.19-3.08-5.46-6.37-5.85c-3.28-0.39-6.64-0.08-9.97-0.08c0.61,2.21,0.71,2.32,2.32,2.61
		C156.69,12.18,156.69,17,156.69,21.96z"/>
</g>
<path d="M229.57,12.25c0.73-0.13,1.43-0.34,2.14-0.36c1.5-0.06,3-0.02,4.61-0.02c0,0.77,0,1.52,0,2.47c-0.89,0-1.83-0.04-2.77,0.01
	c-1.04,0.05-2.09,0.16-3.12,0.29c-0.67,0.09-1.02,0.46-0.99,1.21c0.04,1.09,0.01,2.18,0.01,3.51c3.5,0.05,6.94-0.01,10.47,0.03
	c0,0.86,0,1.61,0,2.48c-4.28,0-8.57,0-12.96,0c0-5.66,0-11.29,0-16.92c0.91-0.3,9.94-0.4,12.02-0.12c0.02,0.37,0.07,0.77,0.07,1.17
	c0,0.36-0.03,0.71-0.06,1.18c-3.15,0-6.23,0-9.43,0C229.57,8.94,229.57,10.59,229.57,12.25z"/>
<path d="M296.4,6.99c-0.5,0.59-0.97,1.13-1.49,1.75c-0.37-0.22-0.73-0.4-1.04-0.64c-1.3-0.97-2.8-1.3-4.37-1.35
	c-1.21-0.04-2.22,0.5-2.98,1.43c-1.06,1.28-0.58,2.8,1.04,3.13c1.15,0.23,2.36,0.17,3.53,0.3c0.99,0.11,2,0.2,2.94,0.5
	c3.31,1.06,4.3,5.36,1.84,7.86c-1.86,1.9-4.23,2.45-6.76,2.3c-2.66-0.16-4.92-1.23-6.64-3.46c0.57-0.57,1.14-1.13,1.74-1.74
	c1.3,1.4,2.76,2.36,4.6,2.65c1.55,0.25,3-0.07,4.35-0.81c1.06-0.58,1.51-1.52,1.36-2.75c-0.15-1.21-0.99-1.68-2.04-1.86
	c-0.8-0.14-1.63-0.14-2.44-0.24c-1.22-0.14-2.45-0.22-3.64-0.49c-3.91-0.88-3.81-4.97-2.13-7c1.72-2.06,4.01-2.57,6.53-2.32
	C292.97,4.47,294.8,5.4,296.4,6.99z"/>
<path d="M120.61,19.39c3.65,0,7.06,0,10.55,0c0,0.88,0,1.64,0,2.49c-4.31,0-8.61,0-12.99,0c0-5.69,0-11.33,0-17.08
	c3.94,0,7.88,0,11.94,0c0,0.72,0,1.47,0,2.38c-3.09,0-6.21,0-9.41,0c0,1.78,0,3.41,0,4.9c2.25-0.12,4.5-0.24,6.86-0.36
	c0,0.91,0,1.66,0,2.62c-0.84,0-1.73-0.04-2.62,0.01c-1.09,0.06-2.18,0.15-3.26,0.29c-0.72,0.09-1.11,0.48-1.07,1.29
	C120.66,17.01,120.61,18.1,120.61,19.39z"/>
<path d="M195.81,7.18c-2.17,0-4.12,0-6.13,0c0-0.82,0-1.53,0-2.36c4.82,0,9.63,0,14.55,0c0,0.7,0,1.44,0,2.35c-1.89,0-3.83,0-5.91,0
	c0,4.96,0,9.78,0,14.7c-0.85,0-1.55,0-2.49,0c-0.04-2.38-0.01-4.82-0.02-7.26C195.8,12.2,195.81,9.79,195.81,7.18z"/>
<path d="M87.03,7.25c-2.13,0-4.07,0-6.11,0c0-0.86,0-1.61,0-2.46c4.81,0,9.62,0,14.52,0c0,0.75,0,1.5,0,2.38c-1.96,0-3.9,0-5.98,0
	c0,4.95,0,9.77,0,14.69c-0.84,0-1.54,0-2.44,0C87.03,17.06,87.03,12.22,87.03,7.25z"/>
<path d="M179.44,21.88c0-1.97-0.07-3.83,0.02-5.69c0.06-1.23-0.3-2.15-1.11-3.06c-1.99-2.22-3.57-4.71-4.82-7.42
	c-0.13-0.28-0.23-0.58-0.35-0.88c2.55-0.32,2.53-0.31,3.64,1.85c1.02,1.99,2.24,3.85,3.86,5.5c2.18-2.13,3.58-4.71,4.79-7.41
	c0.92,0,1.78,0,2.76,0c-0.73,2.07-1.81,3.85-3,5.56c-0.83,1.19-1.75,2.33-2.69,3.45c-0.44,0.52-0.64,1.04-0.63,1.72
	c0.04,2.09,0.01,4.19,0.01,6.39C181.12,21.88,180.38,21.88,179.44,21.88z"/>
<path d="M8.28,23.14c0-0.61,0-1.14,0-1.75c5.36,0,10.66,0,16.04,0c0,0.59,0,1.12,0,1.75C19.02,23.14,13.72,23.14,8.28,23.14z"/>
<path d="M49.08,23.17c0-0.64,0-1.13,0-1.74c5.37,0,10.69,0,16.07,0c0,0.58,0,1.12,0,1.74C59.8,23.17,54.49,23.17,49.08,23.17z"/>
<path d="M28.1,28.85c-0.57,0-1.1,0-1.73,0c0-5.33,0-10.63,0-16.02c0.56,0,1.09,0,1.73,0C28.1,18.1,28.1,23.4,28.1,28.85z"/>
<path d="M45.32,12.81c0.59,0,1.11,0,1.73,0c0,5.35,0,10.65,0,16.02c-0.56,0-1.09,0-1.73,0C45.32,23.56,45.32,18.26,45.32,12.81z"/>
<path d="M24.33,40.43c0,0.64,0,1.17,0,1.77c-5.34,0-10.61,0-15.99,0c0-0.54,0-1.1,0-1.77C13.61,40.43,18.91,40.43,24.33,40.43z"/>
<path d="M49.09,42.17c0-0.61,0-1.15,0-1.76c5.33,0,10.6,0,15.99,0c0,0.54,0,1.1,0,1.76C59.83,42.17,54.52,42.17,49.09,42.17z"/>
<path d="M18.58,60.21c-0.63,0-1.16,0-1.77,0c0-5.33,0-10.6,0-15.98c0.57,0,1.13,0,1.77,0C18.58,49.53,18.58,54.8,18.58,60.21z"/>
<path d="M35.8,44.21c0.39-0.03,0.71-0.07,1.02-0.07c0.22,0,0.43,0.04,0.73,0.07c0,5.33,0,10.59,0,15.96c-0.57,0-1.12,0-1.75,0
	C35.8,54.85,35.8,49.55,35.8,44.21z"/>
<path d="M56.56,60.23c-0.61,0-1.1,0-1.7,0c0-5.35,0-10.64,0-16.03c0.28-0.02,0.54-0.06,0.8-0.07c0.27,0,0.54,0.04,0.9,0.06
	C56.56,49.56,56.56,54.89,56.56,60.23z"/>
<path d="M30.14,23.16c0-0.59,0-1.12,0-1.74c4.39,0,8.73,0,13.12,0c0,0.59,0,1.12,0,1.74C38.88,23.16,34.55,23.16,30.14,23.16z"/>
<path d="M56.59,38.38c-0.56,0-1.09,0-1.73,0c0-4.38,0-8.76,0-13.22c0.58,0,1.11,0,1.73,0C56.59,29.55,56.59,33.93,56.59,38.38z"/>
<path d="M33.81,30.89c0,0.62,0,1.14,0,1.75c-4.42,0-8.77,0-13.19,0c0-0.59,0-1.12,0-1.75C24.97,30.89,29.33,30.89,33.81,30.89z"/>
<path d="M39.54,32.61c0-0.62,0-1.12,0-1.71c4.42,0,8.8,0,13.26,0c0,0.55,0,1.08,0,1.71C48.42,32.61,44.04,32.61,39.54,32.61z"/>
<path d="M18.58,38.39c-0.64,0-1.17,0-1.77,0c0-4.4,0-8.75,0-13.2c0.57,0,1.13,0,1.77,0C18.58,29.57,18.58,33.92,18.58,38.39z"/>
<path d="M26.37,34.66c0.61,0,1.14,0,1.76,0c0,4.38,0,8.72,0,13.17c-0.53,0-1.1,0-1.76,0C26.37,43.48,26.37,39.14,26.37,34.66z"/>
<path d="M45.29,47.84c0-4.4,0-8.75,0-13.17c0.59,0,1.12,0,1.75,0c0,4.35,0,8.71,0,13.17C46.49,47.84,45.93,47.84,45.29,47.84z"/>
<path d="M37.54,38.4c-0.62,0-1.11,0-1.72,0c0-4.39,0-8.74,0-13.2c0.5,0,1.06,0,1.72,0C37.54,29.57,37.54,33.92,37.54,38.4z"/>
<path d="M33.79,51.61c-4.41,0-8.76,0-13.17,0c0-0.61,0-1.14,0-1.75c4.37,0,8.72,0,13.17,0C33.79,50.43,33.79,50.99,33.79,51.61z"/>
<path d="M52.82,49.86c0,0.62,0,1.11,0,1.72c-4.41,0-8.79,0-13.24,0c0-0.56,0-1.09,0-1.72C43.94,49.86,48.32,49.86,52.82,49.86z"/>
<path d="M30.14,42.2c0-0.6,0-1.13,0-1.76c4.34,0,8.68,0,13.1,0c0,0.57,0,1.13,0,1.76C38.88,42.2,34.54,42.2,30.14,42.2z"/>
<path d="M16.85,12.79c0.61,0,1.1,0,1.7,0c0,2.19,0,4.33,0,6.58c-0.54,0-1.1,0-1.7,0C16.85,17.16,16.85,14.98,16.85,12.79z"/>
<path d="M54.83,12.82c0.61,0,1.13,0,1.75,0c0,2.16,0,4.32,0,6.56c-0.56,0-1.12,0-1.75,0C54.83,17.18,54.83,15.04,54.83,12.82z"/>
<path d="M37.55,19.41c-0.63,0-1.15,0-1.75,0c0-2.22,0-4.39,0-6.59c0.61,0,1.13,0,1.75,0C37.55,15.01,37.55,17.13,37.55,19.41z"/>
<path d="M28.13,60.21c-0.59,0-1.11,0-1.74,0c0-2.17,0-4.31,0-6.55c0.55,0,1.11,0,1.74,0C28.13,55.84,28.13,57.98,28.13,60.21z"/>
<path d="M47.02,60.21c-0.57,0-1.1,0-1.71,0c0-2.19,0-4.34,0-6.57c0.55,0,1.07,0,1.71,0C47.02,55.76,47.02,57.91,47.02,60.21z"/>
<path d="M58.58,32.6c0-0.61,0-1.1,0-1.71c2.18,0,4.33,0,6.55,0c0,0.54,0,1.07,0,1.71C63,32.6,60.85,32.6,58.58,32.6z"/>
<path d="M14.78,30.89c0,0.57,0,1.1,0,1.72c-2.14,0-4.28,0-6.49,0c0-0.56,0-1.09,0-1.72C10.43,30.89,12.57,30.89,14.78,30.89z"/>
<path d="M65.16,49.86c0,0.62,0,1.11,0,1.72c-2.18,0-4.33,0-6.55,0c0-0.58,0-1.11,0-1.72C60.78,49.86,62.9,49.86,65.16,49.86z"/>
<path d="M14.78,51.64c-2.21,0-4.29,0-6.46,0c0-0.6,0-1.16,0-1.79c2.16,0,4.27,0,6.46,0C14.78,50.45,14.78,50.97,14.78,51.64z"/>
<g>
</g>
<g>
</g>
<g>
</g>
<g>
</g>
<g>
</g>
<g>
</g>
</svg>
