<?xml version="1.0" encoding="utf-8"?>
<!-- Generator: Adobe Illustrator 21.0.0, SVG Export Plug-In . SVG Version: 6.00 Build 0)  -->
<svg version="1.1" xmlns="http://www.w3.org/2000/svg" xmlns:xlink="http://www.w3.org/1999/xlink" x="0px" y="0px"
	 viewBox="0 0 512 512" style="enable-background:new 0 0 512 512;" xml:space="preserve">
<style type="text/css">
	.st0{opacity:0.77;fill:#01A0C6;}
	.st1{opacity:0.77;fill:#FF0000;}
</style>
<g id="Layer_4">
	<path class="st0" d="M464.1,310.7L274.8,485.9L85.6,310.7c0,0-61.6-62.3-41.1-166.3c20.5-104,128.7-87.6,145.8-83.5
		c17.1,4.1,60.9,34.2,84.5,65c23.6-30.8,67.4-60.9,84.5-65c17.1-4.1,125.2-20.5,145.8,83.5C525.7,248.4,464.1,310.7,464.1,310.7z"/>
</g>
<g id="Layer_3">
	<path class="st1" d="M426.4,310.7L237.2,485.9L47.9,310.7c0,0-61.6-62.3-41.1-166.3c20.5-104,128.7-87.6,145.8-83.5
		c17.1,4.1,60.9,34.2,84.5,65c23.6-30.8,67.4-60.9,84.5-65c17.1-4.1,125.2-20.5,145.8,83.5C488,248.4,426.4,310.7,426.4,310.7z"/>
</g>
<g id="Layer_2">
	<path d="M448,310.7L258.8,485.9L69.6,310.7c0,0-61.6-62.3-41.1-166.3C49,40.3,157.2,56.8,174.3,60.9c17.1,4.1,60.9,34.2,84.5,65
		c23.6-30.8,67.4-60.9,84.5-65c17.1-4.1,125.2-20.5,145.8,83.5C509.6,248.4,448,310.7,448,310.7z"/>
</g>
</svg>
